<svg xmlns="http://www.w3.org/2000/svg" xmlns:xlink="http://www.w3.org/1999/xlink"><symbol id="arrow-bottom" viewBox="0 0 8 5">
<path d="M3.64645 4.35355C3.84171 4.54882 4.15829 4.54882 4.35355 4.35355L7.53553 1.17157C7.7308 0.976311 7.7308 0.659728 7.53553 0.464466C7.34027 0.269204 7.02369 0.269204 6.82843 0.464466L4 3.29289L1.17157 0.464466C0.976311 0.269204 0.659728 0.269204 0.464466 0.464466C0.269204 0.659728 0.269204 0.976311 0.464466 1.17157L3.64645 4.35355ZM3.5 3L3.5 4L4.5 4L4.5 3L3.5 3Z" fill="#F0F0EE"/>
</symbol><symbol id="arrow-next" viewBox="0 0 16 8">
<path d="M15.3536 4.35355C15.5488 4.15829 15.5488 3.84171 15.3536 3.64645L12.1716 0.464466C11.9763 0.269204 11.6598 0.269204 11.4645 0.464466C11.2692 0.659728 11.2692 0.976311 11.4645 1.17157L14.2929 4L11.4645 6.82843C11.2692 7.02369 11.2692 7.34027 11.4645 7.53553C11.6598 7.7308 11.9763 7.7308 12.1716 7.53553L15.3536 4.35355ZM3.05176e-05 4.5L15 4.5V3.5L3.05176e-05 3.5L3.05176e-05 4.5Z" fill="#77AC57"/>
</symbol><symbol id="arrow-prev" viewBox="0 0 17 8">
<path d="M0.81004 3.75556C0.613413 3.94945 0.611192 4.26602 0.80508 4.46265L3.96466 7.66687C4.15855 7.8635 4.47513 7.86572 4.67175 7.67183C4.86838 7.47794 4.8706 7.16137 4.67671 6.96474L1.86819 4.11654L4.71639 1.30803C4.91302 1.11414 4.91524 0.797563 4.72135 0.600936C4.52746 0.404309 4.21089 0.402089 4.01426 0.595976L0.81004 3.75556ZM16.1642 3.71681L1.16461 3.6116L1.1576 4.61157L16.1572 4.71678L16.1642 3.71681Z" fill="#77AC57"/>
</symbol><symbol id="burger" viewBox="0 0 32 20">
<path d="M1 1H30.7805" stroke="#77AC57" stroke-width="2" stroke-linecap="round"/>
<line x1="9" y1="10" x2="30" y2="10" stroke="#77AC57" stroke-width="2" stroke-linecap="round"/>
<line x1="20" y1="19" x2="30" y2="19" stroke="#77AC57" stroke-width="2" stroke-linecap="round"/>
</symbol></svg>